<?xml version="1.0" encoding="utf-8"?>

<!DOCTYPE svg PUBLIC "-//W3C//DTD SVG 1.1//EN" "http://www.w3.org/Graphics/SVG/1.1/DTD/svg11.dtd">
<svg version="1.1" id="Layer_1" xmlns="http://www.w3.org/2000/svg" xmlns:xlink="http://www.w3.org/1999/xlink" x="0px" y="0px"
	 viewBox="0 0 1642 1640.808" enable-background="new 0 0 1642 1640.808" xml:space="preserve">
<path d="M1517.548,426.375c-1.106-5.512-3.798-10.066-7.79-13.567c-308.923-526.704-1072.705-519.697-1377.516,0
	c-4.015,3.521-6.692,8.088-7.79,13.566c-139.13,247.896-138.292,540.393,0,786.793c1.099,5.479,3.773,10.043,7.79,13.567
	c309.66,527.957,1071.458,521.823,1377.516-0.002c3.93-3.447,6.671-7.982,7.789-13.564
	C1656.679,965.27,1655.839,672.773,1517.548,426.375z M1475.669,1188.165c-43.573,6.814-226.708,10.313-272.028,11.144
	c64.008-234.159,65.616-519.024,0-759.076c45.862,0.841,228.419,4.324,272.026,11.144
	C1601.371,677.349,1609.554,947.477,1475.669,1188.165z M864.502,1570.699c-29.458,1.833-57.539,1.833-87.003-0.001
	c-137.402-21.634-228.148-189.126-273.247-321.788c196.921,2.76,431.623,2.83,633.499,0
	C1092.698,1381.434,1001.926,1549.063,864.502,1570.699z M489.002,1200.148c-67.596-235.671-67.662-524.855,0-760.756
	c207.323-3.101,457.275-3.092,663.997,0c67.596,235.672,67.661,524.855,0,760.756
	C946.09,1203.242,696.181,1203.246,489.002,1200.148z M777.523,68.841c29.332-1.825,57.399-1.839,86.971,0.001
	c137.423,21.631,228.168,189.163,273.256,321.788c-197.62-2.771-432.501-2.819-633.499,0
	C549.249,258.268,639.967,90.482,777.523,68.841z M1444.126,399.578c-68.136-4.408-186.787-6.972-254.994-8.148
	c-34.117-105.949-89.911-221.852-172.548-296.988C1187.27,141.422,1341.062,244.508,1444.126,399.578z M625.414,94.443
	c-82.664,75.161-138.446,191.089-172.546,296.987c-68.213,1.176-186.86,3.741-254.995,8.148
	C300.599,245.014,454.102,141.597,625.414,94.443z M166.332,451.376c43.69-6.832,227.787-10.333,272.028-11.144
	c-64.294,235.209-65.345,520.023,0,759.076c-46.077-0.845-228.442-4.329-272.027-11.143
	C40.624,962.182,32.452,692.053,166.332,451.376z M197.875,1239.963c68.075,4.403,186.604,6.969,254.994,8.147
	c34.35,106.675,90.242,222.153,172.547,296.988C454.731,1498.119,300.939,1395.034,197.875,1239.963z M1016.584,1545.099
	c82.656-75.152,138.446-191.085,172.548-296.989c68.328-1.177,186.901-3.743,254.995-8.147
	C1341.397,1394.535,1187.881,1497.95,1016.584,1545.099z"/>
</svg>
